<svg width="50" height="50" viewBox="0 0 50 50" fill="none" xmlns="http://www.w3.org/2000/svg">
<path d="M25 42C34.4 42 42 34.4 42 25C42 15.6 34.4 8 25 8C15.6 8 8 15.6 8 25C8 34.4 15.6 42 25 42ZM25 10C33.3 10 40 16.7 40 25C40 33.3 33.3 40 25 40C16.7 40 10 33.3 10 25C10 16.7 16.7 10 25 10Z" fill="white" fill-opacity="0.5"/>
<path d="M24.7 34.7L34.4 25L24.7 15.3L23.3 16.7L31.6 25L23.3 33.3L24.7 34.7Z" fill="white" fill-opacity="0.5"/>
<path d="M33 24H16V26H33V24Z" fill="white" fill-opacity="0.5"/>
</svg>
