<svg width="12" height="12" viewBox="0 0 12 12" fill="none" xmlns="http://www.w3.org/2000/svg">
<path d="M6.60156 0.787109L6.04297 0.228516C5.78906 0 5.4082 0 5.17969 0.228516L0.228516 5.1543C0 5.4082 0 5.78906 0.228516 6.01758L5.17969 10.9688C5.4082 11.1973 5.78906 11.1973 6.04297 10.9688L6.60156 10.4102C6.83008 10.1562 6.83008 9.77539 6.60156 9.52148L3.5293 6.60156H10.8164C11.1719 6.60156 11.4258 6.34766 11.4258 5.99219V5.17969C11.4258 4.84961 11.1719 4.57031 10.8164 4.57031H3.5293L6.60156 1.67578C6.83008 1.42188 6.85547 1.04102 6.60156 0.787109Z" fill="#324094"/>
</svg>
