<svg width="16" height="16" viewBox="0 0 16 16" fill="none" xmlns="http://www.w3.org/2000/svg">
<path d="M12.6667 2.66659H11.3334V1.99992C11.3334 1.82311 11.2631 1.65354 11.1381 1.52851C11.0131 1.40349 10.8435 1.33325 10.6667 1.33325C10.4899 1.33325 10.3203 1.40349 10.1953 1.52851C10.0703 1.65354 10 1.82311 10 1.99992V2.66659H6.00004V1.99992C6.00004 1.82311 5.9298 1.65354 5.80478 1.52851C5.67975 1.40349 5.51018 1.33325 5.33337 1.33325C5.15656 1.33325 4.98699 1.40349 4.86197 1.52851C4.73695 1.65354 4.66671 1.82311 4.66671 1.99992V2.66659H3.33337C2.80294 2.66659 2.29423 2.8773 1.91916 3.25237C1.54409 3.62744 1.33337 4.13615 1.33337 4.66658V12.6666C1.33337 13.197 1.54409 13.7057 1.91916 14.0808C2.29423 14.4559 2.80294 14.6666 3.33337 14.6666H12.6667C13.1971 14.6666 13.7058 14.4559 14.0809 14.0808C14.456 13.7057 14.6667 13.197 14.6667 12.6666V4.66658C14.6667 4.13615 14.456 3.62744 14.0809 3.25237C13.7058 2.8773 13.1971 2.66659 12.6667 2.66659ZM13.3334 12.6666C13.3334 12.8434 13.2631 13.013 13.1381 13.138C13.0131 13.263 12.8435 13.3333 12.6667 13.3333H3.33337C3.15656 13.3333 2.98699 13.263 2.86197 13.138C2.73695 13.013 2.66671 12.8434 2.66671 12.6666V7.99992H13.3334V12.6666ZM13.3334 6.66658H2.66671V4.66658C2.66671 4.48977 2.73695 4.3202 2.86197 4.19518C2.98699 4.07016 3.15656 3.99992 3.33337 3.99992H4.66671V4.66658C4.66671 4.8434 4.73695 5.01297 4.86197 5.13799C4.98699 5.26301 5.15656 5.33325 5.33337 5.33325C5.51018 5.33325 5.67975 5.26301 5.80478 5.13799C5.9298 5.01297 6.00004 4.8434 6.00004 4.66658V3.99992H10V4.66658C10 4.8434 10.0703 5.01297 10.1953 5.13799C10.3203 5.26301 10.4899 5.33325 10.6667 5.33325C10.8435 5.33325 11.0131 5.26301 11.1381 5.13799C11.2631 5.01297 11.3334 4.8434 11.3334 4.66658V3.99992H12.6667C12.8435 3.99992 13.0131 4.07016 13.1381 4.19518C13.2631 4.3202 13.3334 4.48977 13.3334 4.66658V6.66658Z" fill="#F7941F"/>
</svg>
