<svg width="36" height="36" viewBox="0 0 36 36" fill="none" xmlns="http://www.w3.org/2000/svg">
<g clip-path="url(#clip0_4_544)">
<path d="M26.55 13.77C26.6802 13.6112 26.7773 13.4278 26.8354 13.2309C26.8936 13.0339 26.9117 12.8272 26.8886 12.6231C26.8655 12.419 26.8018 12.2216 26.7011 12.0426C26.6004 11.8636 26.4649 11.7065 26.3025 11.5808C25.9722 11.3224 25.554 11.2031 25.1371 11.2485C24.7202 11.2939 24.3375 11.5003 24.0705 11.8238L16.623 20.9588L12.6405 17.8988C12.3152 17.634 11.8993 17.5068 11.4815 17.5442C11.0638 17.5816 10.6771 17.7807 10.404 18.099C10.2706 18.2552 10.1698 18.4364 10.1076 18.6322C10.0455 18.8279 10.0232 19.0341 10.042 19.2387C10.0609 19.4432 10.1206 19.6418 10.2175 19.8229C10.3145 20.0039 10.4468 20.1637 10.6065 20.2928L15.8265 24.3653C16.1561 24.6334 16.5785 24.7602 17.0013 24.7181C17.4241 24.6759 17.8131 24.4682 18.0833 24.1403L26.5433 13.7453L26.55 13.77Z" fill="white"/>
<path fill-rule="evenodd" clip-rule="evenodd" d="M14.6475 1.60652C15.849 0.724525 16.4498 0.283525 17.1 0.112525C17.6811 -0.034904 18.2897 -0.034904 18.8708 0.112525C19.5278 0.283525 20.1308 0.724525 21.3233 1.60652L22.8465 2.72477C23.2628 3.03077 23.472 3.18377 23.697 3.30302C23.898 3.40802 24.1073 3.49502 24.3248 3.56402C24.57 3.63827 24.8243 3.67652 25.335 3.75527L27.2025 4.04102C28.6763 4.26602 29.412 4.38077 29.9925 4.72502C30.51 5.02877 30.942 5.46077 31.2458 5.97827C31.59 6.56327 31.7025 7.30127 31.9298 8.76827L32.2155 10.6358C32.2943 11.1465 32.3325 11.403 32.4068 11.6483C32.4743 11.8658 32.5613 12.0743 32.6678 12.2738C32.7893 12.4988 32.94 12.708 33.246 13.1243L34.3643 14.6475C35.2463 15.849 35.6873 16.4498 35.8583 17.1C36.0057 17.6811 36.0057 18.2897 35.8583 18.8708C35.6895 19.5278 35.2463 20.1308 34.3643 21.3233L33.246 22.8465C33.0319 23.1149 32.8386 23.3992 32.6678 23.697C32.561 23.8983 32.4736 24.1092 32.4068 24.327C32.3325 24.57 32.2943 24.8243 32.2155 25.335L31.9298 27.2025C31.7048 28.6763 31.59 29.412 31.2458 29.9925C30.942 30.51 30.51 30.942 29.9925 31.2458C29.4075 31.59 28.6695 31.7025 27.2025 31.9298L25.335 32.2155C24.9938 32.2542 24.6561 32.3189 24.3248 32.409C24.1073 32.475 23.898 32.562 23.697 32.67C23.472 32.7893 23.2628 32.94 22.8465 33.2483L21.3233 34.3665C20.1218 35.2485 19.521 35.6895 18.8708 35.8605C18.2897 36.008 17.6811 36.008 17.1 35.8605C16.443 35.6895 15.84 35.2485 14.6475 34.3665L13.1243 33.2483C12.8559 33.0342 12.5716 32.8409 12.2738 32.67C12.0732 32.5634 11.863 32.476 11.646 32.409C11.3147 32.3189 10.977 32.2542 10.6358 32.2155L8.76827 31.9298C7.29452 31.7048 6.55652 31.5923 5.97827 31.2458C5.46261 30.939 5.03181 30.5082 4.72502 29.9925C4.38077 29.4075 4.26827 28.6695 4.04102 27.2025L3.75527 25.335C3.67652 24.8243 3.63827 24.57 3.56402 24.3248C3.49838 24.1073 3.41093 23.897 3.30302 23.697C3.13218 23.3992 2.93887 23.1149 2.72477 22.8465L1.60652 21.3233C0.724525 20.1218 0.283525 19.5233 0.112525 18.8708C-0.034904 18.2897 -0.034904 17.6811 0.112525 17.1C0.281275 16.443 0.724525 15.84 1.60652 14.6475L2.72477 13.1243C3.03077 12.708 3.18377 12.4988 3.30302 12.2738C3.40802 12.0743 3.49502 11.865 3.56402 11.646C3.63827 11.4008 3.67652 11.1465 3.75527 10.6358L4.04102 8.76827C4.26602 7.29452 4.38077 6.55652 4.72502 5.97827C5.02877 5.46077 5.46077 5.03327 5.97827 4.72502C6.56327 4.38077 7.30127 4.26827 8.76827 4.04102L10.6358 3.75527C11.1465 3.67877 11.403 3.63827 11.646 3.56402C11.8635 3.49652 12.0728 3.40952 12.2738 3.30302C12.4988 3.18377 12.708 3.03077 13.1243 2.72477L14.6475 1.60652ZM20.0025 3.42002L21.6023 4.59452C21.942 4.84427 22.2773 5.09177 22.6508 5.28977C22.9808 5.46527 23.3228 5.60702 23.6768 5.71502C24.0814 5.82693 24.4935 5.91039 24.9098 5.96477L26.8718 6.26627C28.539 6.52277 28.746 6.59252 28.8675 6.66452C29.058 6.77852 29.2095 6.93002 29.322 7.11902C29.394 7.24052 29.466 7.44753 29.7203 9.11478L30.0218 11.0768C30.0762 11.4931 30.1596 11.9051 30.2715 12.3098C30.381 12.6668 30.5228 13.0088 30.6968 13.3358C30.8948 13.7093 31.1423 14.0445 31.392 14.3843L32.5665 15.984C33.5655 17.343 33.66 17.5388 33.696 17.6783C33.7479 17.8896 33.7479 18.1104 33.696 18.3218C33.66 18.459 33.5655 18.6548 32.5665 20.016L31.392 21.6158C31.1423 21.9555 30.8948 22.2908 30.6968 22.6643C30.5228 22.992 30.3804 23.3356 30.2715 23.6903C30.1596 24.0949 30.0762 24.507 30.0218 24.9233L29.7203 26.8853C29.4638 28.5525 29.394 28.7595 29.322 28.881C29.2093 29.0669 29.0534 29.2228 28.8675 29.3355C28.746 29.4075 28.539 29.4795 26.8718 29.7338L24.9098 30.0353C24.4935 30.0897 24.0814 30.1731 23.6768 30.285C23.3221 30.3939 22.9785 30.5363 22.6508 30.7103C22.2773 30.9083 21.942 31.1558 21.6023 31.4055L20.0025 32.58C18.6435 33.579 18.4478 33.6735 18.3083 33.7095C18.0969 33.7614 17.8761 33.7614 17.6648 33.7095C17.5275 33.6735 17.3318 33.579 15.9705 32.58L14.3708 31.4055C14.0379 31.1496 13.6876 30.9173 13.3223 30.7103C12.9945 30.5363 12.651 30.3939 12.2963 30.285C11.8916 30.1731 11.4796 30.0897 11.0633 30.0353L9.10128 29.7338C7.43403 29.4773 7.22702 29.4075 7.10552 29.3355C6.91964 29.2228 6.76372 29.0669 6.65102 28.881C6.57902 28.7595 6.50702 28.5525 6.25277 26.8853L5.95127 24.9233C5.89689 24.507 5.81343 24.0949 5.70152 23.6903C5.59263 23.3356 5.45024 22.992 5.27627 22.6643C5.07827 22.2908 4.83077 21.9555 4.58102 21.6158L3.40652 20.016C2.40752 18.657 2.31302 18.4613 2.27702 18.3218C2.22515 18.1104 2.22515 17.8896 2.27702 17.6783C2.31302 17.541 2.40752 17.3453 3.40652 15.984L4.58102 14.3843C4.83077 14.0445 5.07827 13.7093 5.27627 13.3358C5.45027 13.0058 5.59202 12.6638 5.70152 12.3098C5.81343 11.9051 5.89689 11.4931 5.95127 11.0768L6.25277 9.11478C6.50927 7.44753 6.57902 7.24052 6.65102 7.11902C6.76372 6.93314 6.91964 6.77722 7.10552 6.66452C7.22702 6.59252 7.43403 6.52052 9.10128 6.26627L11.0633 5.96477C11.4796 5.91039 11.8916 5.82693 12.2963 5.71502C12.6533 5.60552 12.9953 5.46377 13.3223 5.28977C13.6958 5.09177 14.031 4.84427 14.3708 4.59452L15.9705 3.42002C17.3295 2.42102 17.5253 2.32652 17.6648 2.29052C17.8761 2.23865 18.0969 2.23865 18.3083 2.29052C18.4455 2.32652 18.6413 2.42102 20.0025 3.42002Z" fill="white"/>
</g>
<defs>
<clipPath id="clip0_4_544">
<rect width="36" height="36" fill="white"/>
</clipPath>
</defs>
</svg>
