<svg width="36" height="36" viewBox="0 0 36 36" fill="none" xmlns="http://www.w3.org/2000/svg">
<path d="M18.75 19.95C18.45 19.2 18.45 18.6 18.6 18H4.5V6.75L13.5 12.75L22.5 6.75V9.3C23.4 8.85 24.15 8.85 24.6 8.85C24.75 8.7 25.05 8.55 25.35 8.4V3.9C25.5 2.55 24.45 1.5 23.1 1.5H3.9C2.55 1.5 1.5 2.55 1.5 3.9V18.6C1.5 19.95 2.55 21 3.9 21H19.35C19.05 20.7 18.9 20.4 18.75 19.95ZM22.5 4.5L13.5 10.5L4.5 4.5H22.5ZM33.9 14.85C33.6 13.95 32.85 13.8 32.4 13.35C32.1 12.9 32.1 12 31.35 11.55C30.6 10.95 29.85 11.25 29.25 11.1C28.65 10.95 28.2 10.2 27.3 10.2C26.4 10.2 25.95 10.8 25.35 11.1C24.75 11.25 24 10.95 23.25 11.55C22.5 12 22.65 12.75 22.2 13.35C21.75 13.8 21 14.1 20.7 14.85C20.4 15.75 21 16.35 21 16.95C21 17.55 20.4 18.15 20.7 19.05C21 19.95 21.75 20.1 22.2 20.55C22.5 21 22.5 21.9 23.25 22.35C24 22.95 24.75 22.65 25.35 22.8C25.95 22.95 26.4 23.7 27.3 23.7C28.2 23.7 28.65 23.1 29.25 22.8C29.85 22.65 30.6 22.95 31.35 22.35C32.1 21.75 32.1 21 32.4 20.55C32.85 20.1 33.6 19.8 33.9 19.05C34.2 18.15 33.6 17.55 33.6 16.95C33.6 16.35 34.2 15.75 33.9 14.85ZM27.3 21.6C24.75 21.6 22.8 19.5 22.8 17.1C22.8 14.7 24.9 12.6 27.3 12.6C29.7 12.6 31.8 14.7 31.8 17.1C31.8 19.5 29.85 21.6 27.3 21.6ZM29.55 16.95C29.55 18.15 28.5 19.2 27.3 19.2C26.1 19.2 25.05 18.15 25.05 16.95C25.05 15.75 26.1 14.7 27.3 14.7C28.5 14.7 29.55 15.75 29.55 16.95ZM29.25 25.65L28.5 29.7L27.6 34.35L24.6 31.5L21 33.15L22.5 24.6C23.1 24.9 23.85 25.05 24.6 25.05C25.05 25.35 25.65 25.65 26.1 25.8C26.4 25.95 26.85 25.95 27.3 25.95C28.05 26.1 28.65 25.95 29.25 25.65ZM34.05 29.25L31.05 28.2L31.65 24.9L32.55 24.45L32.7 24.3L34.05 29.25Z" fill="white"/>
</svg>
