<svg width="60" height="60" viewBox="0 0 60 60" fill="none" xmlns="http://www.w3.org/2000/svg">
<path d="M30 52.5C42.4264 52.5 52.5 42.4264 52.5 30C52.5 17.5736 42.4264 7.5 30 7.5C17.5736 7.5 7.5 17.5736 7.5 30C7.5 42.4264 17.5736 52.5 30 52.5Z" fill="#2CA9BC"/>
<path d="M20 30H30V17.5" stroke="#324094" stroke-width="5" stroke-linecap="round" stroke-linejoin="round"/>
<path d="M30 7.5C34.4501 7.5 38.8002 8.8196 42.5003 11.2919C46.2004 13.7643 49.0843 17.2783 50.7873 21.3896C52.4903 25.501 52.9358 30.025 52.0677 34.3895C51.1995 38.7541 49.0566 42.7632 45.9099 45.9099C42.7632 49.0566 38.7541 51.1995 34.3895 52.0677C30.025 52.9358 25.501 52.4903 21.3896 50.7873C17.2783 49.0843 13.7643 46.2004 11.2919 42.5003C8.8196 38.8002 7.5 34.4501 7.5 30" stroke="#324094" stroke-width="5" stroke-linecap="round" stroke-linejoin="round"/>
</svg>
