<svg width="60" height="60" viewBox="0 0 60 60" fill="none" xmlns="http://www.w3.org/2000/svg">
<path d="M21.7858 15C24.414 15.0003 26.4507 17.1766 26.4509 19.7412V20.6113C26.9349 20.7864 27.406 20.9858 27.864 21.207L28.4294 20.627C30.2562 18.7475 33.2419 18.7521 35.0661 20.6279L35.5095 21.084C37.3054 22.9312 37.3058 25.9038 35.5095 27.751L35.5085 27.75L34.9079 28.3682C35.1425 28.8652 35.3515 29.3778 35.5329 29.9053H36.3356C38.9668 29.9043 40.9999 32.0846 40.9997 34.6465V35.292C40.9997 37.8563 38.9653 40.0336 36.3347 40.0332V40.0342H35.5534C35.3744 40.5601 35.1682 41.0741 34.9352 41.5742L35.5515 42.207H35.5505C37.3482 44.0542 37.3448 47.0254 35.5505 48.8711L35.1071 49.3291L35.1061 49.3301C33.2806 51.2054 30.2959 51.2087 28.4684 49.3281L27.9206 48.7637C27.4616 48.9885 26.9907 49.1901 26.5085 49.3662V50.2578L26.5026 50.4971C26.3819 52.959 24.3889 55 21.8425 55H21.2155C18.5866 55 16.548 52.8252 16.5495 50.2568V49.3887C16.0655 49.214 15.5939 49.0136 15.1345 48.791L14.572 49.3711C12.7452 51.2509 9.7607 51.2493 7.93524 49.373L7.93427 49.3721L7.48993 48.916C5.6946 47.0694 5.69374 44.0966 7.49091 42.249L8.09052 41.6299C7.85536 41.1316 7.64684 40.6189 7.46552 40.0947H6.66571C4.03651 40.0947 1.99983 37.9186 1.99969 35.3535V34.707C1.99988 32.1416 4.03617 29.9648 6.66571 29.9648H7.44696C7.62579 29.4377 7.831 28.9228 8.06317 28.4248L7.44989 27.7939L7.44891 27.793C5.6526 25.9452 5.65434 22.9747 7.44891 21.1279L7.44989 21.126L7.89423 20.6699C9.72084 18.7915 12.7046 18.7927 14.5309 20.6699L14.5329 20.6719L15.0788 21.2354C15.5367 21.0106 16.0075 20.8091 16.4909 20.6328V19.7412C16.491 17.1758 18.528 15.0001 21.1569 15H21.7858ZM21.5007 30.3311C19.0768 30.3311 17.0163 32.3678 17.0163 35C17.0164 37.6315 19.0767 39.668 21.5007 39.668C23.9238 39.6679 25.9837 37.6319 25.9841 35C25.9841 32.368 23.9238 30.3312 21.5007 30.3311Z" fill="#2CA9BC" stroke="#324094" stroke-width="4"/>
<path d="M44.4987 16.5879C43.4431 16.588 42.5866 17.4446 42.5866 18.501C42.5869 19.5572 43.4432 20.413 44.4987 20.4131C45.555 20.4131 46.4116 19.5571 46.4118 18.501C46.4118 17.4447 45.5552 16.5879 44.4987 16.5879ZM57.9997 18.5908C57.9974 20.673 56.3093 22.3675 54.2204 22.3662L54.0124 22.3672C53.9955 22.4086 53.9781 22.4499 53.9606 22.4912L54.1081 22.6387L54.1091 22.6406C55.5818 24.1146 55.5832 26.5041 54.111 27.9795L54.112 27.9805L53.9831 28.1094C52.5088 29.5836 50.116 29.5863 48.6403 28.1094L48.4909 27.9609C48.4496 27.9783 48.4084 27.9959 48.3669 28.0127V28.2217C48.3669 30.3097 46.6736 32 44.5886 32H44.4108C42.3253 31.9999 40.6303 30.3088 40.6325 28.2197V28.0127C40.5909 27.9959 40.5493 27.9785 40.5075 27.9609L40.361 28.1084C38.8873 29.5839 36.4955 29.5851 35.0202 28.1123L34.8932 27.9863L34.8913 27.9844C33.4161 26.5097 33.4143 24.1147 34.8913 22.6396L35.0378 22.4922C35.0203 22.4506 35.003 22.4089 34.986 22.3672H34.778C32.691 22.3672 30.9997 20.6749 30.9997 18.5889V18.4111C30.9998 16.3266 32.6901 14.633 34.778 14.6338H34.986C35.0031 14.5918 35.0201 14.5497 35.0378 14.5078L34.8893 14.3594V14.3584C33.4153 12.8829 33.4157 10.4913 34.8903 9.0166L35.0153 8.8916C36.49 7.41625 38.8853 7.41412 40.361 8.8916L40.5075 9.03906C40.5491 9.02156 40.5903 9.004 40.6315 8.9873V8.77832C40.6315 6.6901 42.325 5.00007 44.4108 5H44.5886L44.7829 5.00488C46.7788 5.10612 48.3659 6.75702 48.3659 8.77832V8.9873C48.4072 9.00406 48.448 9.02178 48.489 9.03906L48.6374 8.8916L48.6384 8.89062C50.0676 7.46189 52.3575 7.41736 53.8405 8.75684L53.9821 8.89062L54.1081 9.0166C55.5821 10.491 55.5823 12.8821 54.1081 14.3574L54.1091 14.3584L53.9597 14.5078C53.9771 14.5493 53.9944 14.591 54.0114 14.6328H54.2214C56.3085 14.6329 57.9974 16.3252 57.9997 18.4092V18.5908Z" fill="#2CA9BC" stroke="#324094" stroke-width="4"/>
</svg>
