<svg width="76" height="76" viewBox="0 0 76 76" fill="none" xmlns="http://www.w3.org/2000/svg">
<rect width="100" height="100" transform="translate(70.7107 -65.71) rotate(45)" fill="#324094"/>
<path d="M54.4476 21.3193C54.4476 21.5798 54.3174 21.71 54.0569 21.71C53.7965 21.71 53.6663 21.5798 53.6663 21.3193V20.0693C53.6663 19.7568 53.5491 19.4834 53.3148 19.249C53.0804 19.0146 52.8069 18.8975 52.4944 18.8975H47.1038C46.7913 18.8975 46.5179 19.0146 46.2835 19.249C46.0491 19.4834 45.9319 19.7568 45.9319 20.0693V24.7568C45.9319 25.0693 46.0491 25.3428 46.2835 25.5771C46.5179 25.8115 46.7913 25.9287 47.1038 25.9287H50.0335C50.2939 25.9287 50.4241 26.0589 50.4241 26.3193C50.4241 28.0902 50.0856 29.4574 49.4085 30.4209C48.7835 31.3324 47.8721 31.8792 46.6741 32.0615V35.1865C51.3356 34.7699 53.6663 31.723 53.6663 26.0459V24.6396C53.6663 24.3792 53.7965 24.249 54.0569 24.249C54.3174 24.249 54.4476 24.3792 54.4476 24.6396V26.0459C54.4476 29.1969 53.7705 31.5928 52.4163 33.2334C51.0622 34.9261 49.0309 35.8506 46.3226 36.0068C46.2965 36.0068 46.2835 36.0068 46.2835 36.0068C46.1793 36.0068 46.0882 35.9678 46.0101 35.8896C45.9319 35.8115 45.8929 35.7204 45.8929 35.6162V31.749C45.8929 31.4886 46.0101 31.3584 46.2444 31.3584C48.4059 31.1501 49.5387 29.6006 49.6429 26.71H47.1038C46.5569 26.71 46.0947 26.5212 45.7171 26.1436C45.3395 25.7659 45.1507 25.3037 45.1507 24.7568V20.0693C45.1507 19.5225 45.3395 19.0602 45.7171 18.6826C46.0947 18.305 46.5569 18.1162 47.1038 18.1162H52.4944C53.0413 18.1162 53.5036 18.305 53.8812 18.6826C54.2588 19.0602 54.4476 19.5225 54.4476 20.0693V21.3193ZM63.1976 18.1162C63.7444 18.1162 64.2067 18.305 64.5843 18.6826C64.9619 19.0602 65.1507 19.5225 65.1507 20.0693V26.0459C65.1507 29.1969 64.4736 31.5928 63.1194 33.2334C61.7653 34.9261 59.734 35.8506 57.0257 36.0068C56.9997 36.0068 56.9866 36.0068 56.9866 36.0068C56.8825 36.0068 56.7913 35.9678 56.7132 35.8896C56.6351 35.8115 56.596 35.7204 56.596 35.6162V31.749C56.596 31.4886 56.7132 31.3584 56.9476 31.3584C59.109 31.1501 60.2418 29.6006 60.346 26.71H57.8069C57.2601 26.71 56.7978 26.5212 56.4202 26.1436C56.0426 25.7659 55.8538 25.3037 55.8538 24.7568V20.0693C55.8538 19.5225 56.0426 19.0602 56.4202 18.6826C56.7978 18.305 57.2601 18.1162 57.8069 18.1162H63.1976ZM64.3694 26.0459V20.0693C64.3694 19.861 64.3239 19.6722 64.2327 19.5029C64.1416 19.3337 64.0114 19.1969 63.8421 19.0928C63.6728 18.9886 63.484 18.9235 63.2757 18.8975V21.7881C63.2757 22.0485 63.1455 22.1787 62.8851 22.1787C62.6247 22.1787 62.4944 22.0485 62.4944 21.7881V18.8975H57.8069C57.4944 18.8975 57.221 19.0146 56.9866 19.249C56.7523 19.4834 56.6351 19.7568 56.6351 20.0693V24.7568C56.6351 25.0693 56.7523 25.3428 56.9866 25.5771C57.221 25.8115 57.4944 25.9287 57.8069 25.9287H60.7366C60.9971 25.9287 61.1273 26.0589 61.1273 26.3193C61.1273 28.0902 60.7887 29.4574 60.1116 30.4209C59.4866 31.3324 58.5752 31.8792 57.3773 32.0615V35.1865C62.0387 34.7699 64.3694 31.723 64.3694 26.0459ZM62.4944 23.1553C62.4944 23.1553 62.4944 23.0902 62.4944 22.96C62.4944 22.8298 62.6247 22.7646 62.8851 22.7646C63.1455 22.7646 63.2757 22.8949 63.2757 23.1553C63.2757 23.4157 63.1455 23.5459 62.8851 23.5459C62.6247 23.5459 62.4944 23.4157 62.4944 23.1553ZM53.6663 22.999C53.6663 22.7386 53.7965 22.6084 54.0569 22.6084C54.3174 22.6084 54.4476 22.7386 54.4476 22.999C54.4476 23.2594 54.3174 23.3896 54.0569 23.3896C53.7965 23.3896 53.6663 23.2594 53.6663 22.999Z" fill="white"/>
</svg>
