<svg width="36" height="36" viewBox="0 0 36 36" fill="none" xmlns="http://www.w3.org/2000/svg">
<path d="M4.5 6.75V9H29.25V27H13.5V29.25H33.75V27H31.5V6.75H4.5ZM9.00225 10.125C7.80984 10.1291 6.66743 10.6045 5.82405 11.4475C4.98068 12.2904 4.50474 13.4326 4.5 14.625C4.5 17.0989 6.5295 19.125 9.00225 19.125C10.1941 19.1203 11.3357 18.6446 12.1782 17.8016C13.0207 16.9587 13.4959 15.8168 13.5 14.625C13.5 12.1534 11.4727 10.125 9.00225 10.125ZM15.75 11.25V13.5H21.375V11.25H15.75ZM23.625 11.25V13.5H27V11.25H23.625ZM9.00225 12.375C10.2555 12.375 11.25 13.3684 11.25 14.625C11.25 15.885 10.2566 16.875 9.00225 16.875C7.74225 16.875 6.75 15.885 6.75 14.625C6.75 13.3684 7.74337 12.375 9.00225 12.375ZM15.75 15.75V18H27V15.75H15.75ZM4.5 20.25V29.25H6.75V22.5H10.125V29.25H12.375V23.2403L14.697 24.4688C15.3551 24.8175 16.146 24.8164 16.803 24.4688V24.471L20.7743 22.3706L19.7246 20.3794L15.7522 22.4798L12.2692 20.6415C11.7832 20.3845 11.2418 20.2501 10.692 20.25H4.5Z" fill="white"/>
</svg>
