<svg width="60" height="60" viewBox="0 0 60 60" fill="none" xmlns="http://www.w3.org/2000/svg">
<path d="M42.5 52.5H40C39.337 52.5 38.7011 52.2366 38.2322 51.7678C37.7634 51.2989 37.5 50.663 37.5 50V32.5C37.5 31.837 37.7634 31.2011 38.2322 30.7322C38.7011 30.2634 39.337 30 40 30H42.5C44.4891 30 46.3968 30.7902 47.8033 32.1967C49.2098 33.6032 50 35.5109 50 37.5V45C50 46.9891 49.2098 48.8968 47.8033 50.3033C46.3968 51.7098 44.4891 52.5 42.5 52.5ZM17.5 52.5H20C20.663 52.5 21.2989 52.2366 21.7678 51.7678C22.2366 51.2989 22.5 50.663 22.5 50V32.5C22.5 31.837 22.2366 31.2011 21.7678 30.7322C21.2989 30.2634 20.663 30 20 30H17.5C15.5109 30 13.6032 30.7902 12.1967 32.1967C10.7902 33.6032 10 35.5109 10 37.5V45C10 46.9891 10.7902 48.8968 12.1967 50.3033C13.6032 51.7098 15.5109 52.5 17.5 52.5Z" fill="#2CA9BC"/>
<path d="M10 42.5L9.10001 30C8.88675 27.1255 9.26896 24.2379 10.2227 21.5178C11.1765 18.7978 12.6813 16.3038 14.643 14.1919C16.6047 12.0801 18.9811 10.3957 21.6235 9.24423C24.266 8.09277 27.1176 7.49898 30 7.5C32.8824 7.49898 35.734 8.09277 38.3765 9.24423C41.0189 10.3957 43.3953 12.0801 45.357 14.1919C47.3187 16.3038 48.8235 18.7978 49.7773 21.5178C50.7311 24.2379 51.1133 27.1255 50.9 30L50 42.5" stroke="#324094" stroke-width="5" stroke-linecap="round" stroke-linejoin="round"/>
<path d="M42.5 52.5H40C39.337 52.5 38.7011 52.2366 38.2322 51.7678C37.7634 51.2989 37.5 50.663 37.5 50V32.5C37.5 31.837 37.7634 31.2011 38.2322 30.7322C38.7011 30.2634 39.337 30 40 30H42.5C44.4891 30 46.3968 30.7902 47.8033 32.1967C49.2098 33.6032 50 35.5109 50 37.5V45C50 46.9891 49.2098 48.8968 47.8033 50.3033C46.3968 51.7098 44.4891 52.5 42.5 52.5ZM17.5 52.5H20C20.663 52.5 21.2989 52.2366 21.7678 51.7678C22.2366 51.2989 22.5 50.663 22.5 50V32.5C22.5 31.837 22.2366 31.2011 21.7678 30.7322C21.2989 30.2634 20.663 30 20 30H17.5C15.5109 30 13.6032 30.7902 12.1967 32.1967C10.7902 33.6032 10 35.5109 10 37.5V45C10 46.9891 10.7902 48.8968 12.1967 50.3033C13.6032 51.7098 15.5109 52.5 17.5 52.5Z" stroke="#324094" stroke-width="5" stroke-linecap="round" stroke-linejoin="round"/>
</svg>
