<svg width="16" height="16" viewBox="0 0 16 16" fill="none" xmlns="http://www.w3.org/2000/svg">
<path d="M8.06668 12.3667L8.00001 12.4333L7.92668 12.3667C4.76001 9.49333 2.66668 7.59333 2.66668 5.66667C2.66668 4.33333 3.66668 3.33333 5.00001 3.33333C6.02668 3.33333 7.02668 4 7.38001 4.90667H8.62001C8.97334 4 9.97334 3.33333 11 3.33333C12.3333 3.33333 13.3333 4.33333 13.3333 5.66667C13.3333 7.59333 11.24 9.49333 8.06668 12.3667ZM11 2C9.84001 2 8.72668 2.54 8.00001 3.38667C7.27334 2.54 6.16001 2 5.00001 2C2.94668 2 1.33334 3.60667 1.33334 5.66667C1.33334 8.18 3.60001 10.24 7.03334 13.3533L8.00001 14.2333L8.96668 13.3533C12.4 10.24 14.6667 8.18 14.6667 5.66667C14.6667 3.60667 13.0533 2 11 2Z" fill="white"/>
</svg>
