<svg width="60" height="60" viewBox="0 0 60 60" fill="none" xmlns="http://www.w3.org/2000/svg">
<g clip-path="url(#clip0_20_1313)">
<path d="M48.5977 60H11.4023C7.86914 60 4.99805 57.1289 4.99805 53.5957V26.4082C4.99805 22.875 7.86914 20.0039 11.4023 20.0039H48.5918C52.125 20.0039 54.9961 22.875 54.9961 26.4082V53.5957C55.002 57.1289 52.125 60 48.5977 60ZM11.4023 25.002C10.6289 25.002 9.99609 25.6348 9.99609 26.4082V53.5957C9.99609 54.3691 10.6289 55.002 11.4023 55.002H48.5918C49.3652 55.002 49.998 54.3691 49.998 53.5957V26.4082C49.998 25.6348 49.3652 25.002 48.5918 25.002H11.4023Z" fill="#2CA9BC"/>
<path d="M42.498 25.002C41.1152 25.002 39.9961 23.8828 39.9961 22.5V15C39.9961 9.48633 35.5078 4.99805 29.9941 4.99805C24.4805 4.99805 19.998 9.48633 19.998 15V22.5C19.998 23.8828 18.8789 25.002 17.4961 25.002C16.1133 25.002 15 23.8828 15 22.5V15C15 6.72656 21.7266 0 30 0C38.2734 0 45 6.72656 45 15V22.5C45 23.8828 43.8809 25.002 42.498 25.002ZM30 47.502C28.6172 47.502 27.498 46.3828 27.498 45V34.998C27.498 33.6152 28.6172 32.4961 30 32.4961C31.3828 32.4961 32.502 33.6152 32.502 34.998V45C32.502 46.3828 31.3828 47.502 30 47.502Z" fill="#324094"/>
</g>
<defs>
<clipPath id="clip0_20_1313">
<rect width="60" height="60" fill="white"/>
</clipPath>
</defs>
</svg>
