<svg width="16" height="16" viewBox="0 0 16 16" fill="none" xmlns="http://www.w3.org/2000/svg">
<path d="M3.33333 5.33317V8.6665L2 10.6665V12.6665H14V10.6665L12.6667 8.6665V5.33317C12.6667 4.72034 12.546 4.1135 12.3114 3.54731C12.0769 2.98113 11.7332 2.46668 11.2998 2.03334C10.8665 1.6 10.352 1.25625 9.78586 1.02173C9.21967 0.787211 8.61284 0.666504 8 0.666504C7.38716 0.666504 6.78033 0.787211 6.21414 1.02173C5.64796 1.25625 5.13351 1.6 4.70017 2.03334C4.26683 2.46668 3.92308 2.98113 3.68856 3.54731C3.45404 4.1135 3.33333 4.72034 3.33333 5.33317ZM5.66667 12.6665H10.3333C10.3333 12.9729 10.273 13.2763 10.1557 13.5594C10.0385 13.8425 9.86659 14.0998 9.64992 14.3164C9.43325 14.5331 9.17602 14.705 8.89293 14.8222C8.60984 14.9395 8.30642 14.9998 8 14.9998C7.69358 14.9998 7.39017 14.9395 7.10707 14.8222C6.82398 14.705 6.56675 14.5331 6.35008 14.3164C6.13341 14.0998 5.96154 13.8425 5.84428 13.5594C5.72702 13.2763 5.66667 12.9729 5.66667 12.6665Z" stroke="white" stroke-linecap="square"/>
</svg>
