<svg width="32" height="32" viewBox="0 0 32 32" fill="none" xmlns="http://www.w3.org/2000/svg">
<g clip-path="url(#clip0_26_154)">
<path d="M24.5962 13.8096H22.8251C22.7042 13.8096 22.6011 13.8976 22.5822 14.0172L21.866 18.5581C21.8518 18.6477 21.9212 18.7284 22.0115 18.7284H22.9204C23.0048 18.7284 23.077 18.6668 23.0902 18.5829L23.2935 17.2958C23.3121 17.1759 23.4155 17.0879 23.5364 17.0879H24.0967C25.2634 17.0879 25.9364 16.5234 26.1125 15.4048C26.1919 14.9155 26.1156 14.5309 25.8864 14.2617C25.635 13.966 25.1889 13.8096 24.5962 13.8096ZM24.8005 15.468C24.7039 16.1034 24.2184 16.1034 23.7487 16.1034H23.4817L23.6695 14.9167C23.6806 14.845 23.7422 14.7922 23.815 14.7922H23.9375C24.257 14.7922 24.5589 14.7922 24.7148 14.9745C24.8077 15.0832 24.8359 15.2448 24.8005 15.468Z" fill="#179BD7"/>
<path d="M29.8891 15.4479H29.0417C28.9689 15.4479 28.907 15.5007 28.8962 15.5725L28.8586 15.8096L28.7991 15.7237C28.6155 15.4572 28.2064 15.3682 27.7978 15.3682C26.8607 15.3682 26.0606 16.0779 25.9048 17.0735C25.824 17.5701 25.9387 18.045 26.2204 18.3761C26.4793 18.6806 26.8485 18.8075 27.2885 18.8075C28.0435 18.8075 28.4622 18.322 28.4622 18.322L28.4244 18.5576C28.4101 18.6478 28.4795 18.7285 28.5704 18.7285H29.334C29.4549 18.7285 29.558 18.6405 29.5769 18.5206L30.0354 15.6183C30.0494 15.529 29.98 15.4479 29.8891 15.4479ZM28.7071 17.0983C28.6258 17.5828 28.2408 17.908 27.7504 17.908C27.5047 17.908 27.3074 17.829 27.181 17.6794C27.0557 17.5307 27.0086 17.3192 27.0479 17.0836C27.1248 16.6033 27.5153 16.2674 27.9982 16.2674C28.239 16.2674 28.4347 16.3474 28.5637 16.4984C28.6934 16.6509 28.7447 16.8637 28.7071 17.0983Z" fill="#179BD7"/>
<path d="M30.8889 13.9344L30.1621 18.5583C30.1479 18.6479 30.2173 18.7287 30.3076 18.7287H31.0383C31.1598 18.7287 31.2628 18.6407 31.2815 18.5208L31.9982 13.9802C32.0124 13.8906 31.943 13.8096 31.8527 13.8096H31.0344C30.9622 13.8098 30.9001 13.8627 30.8889 13.9344Z" fill="#179BD7"/>
<path d="M11.9653 13.8096H10.1945C10.0733 13.8096 9.97026 13.8976 9.95136 14.0172L9.23517 18.5581C9.22092 18.6477 9.29032 18.7284 9.3812 18.7284H10.2266C10.3478 18.7284 10.4508 18.6404 10.4697 18.5205L10.6629 17.2958C10.6815 17.1759 10.7849 17.0879 10.9058 17.0879H11.4664C12.6328 17.0879 13.306 16.5234 13.4819 15.4048C13.5611 14.9155 13.4852 14.5309 13.2561 14.2617C13.0044 13.966 12.558 13.8096 11.9653 13.8096ZM12.1696 15.468C12.0728 16.1034 11.5873 16.1034 11.1178 16.1034H10.8506L11.0381 14.9167C11.0492 14.845 11.1114 14.7922 11.1839 14.7922H11.3063C11.6261 14.7922 11.9278 14.7922 12.0836 14.9745C12.1766 15.0832 12.2051 15.2448 12.1696 15.468Z" fill="#253B80"/>
<path d="M17.2586 15.4479H16.4106C16.3384 15.4479 16.276 15.5007 16.2649 15.5725L16.2273 15.8096L16.168 15.7237C15.9844 15.4572 15.5751 15.3682 15.1665 15.3682C14.2294 15.3682 13.4291 16.0779 13.2732 17.0735C13.1922 17.5701 13.3074 18.045 13.5891 18.3761C13.8475 18.6806 14.2173 18.8075 14.6572 18.8075C15.4122 18.8075 15.8309 18.322 15.8309 18.322L15.7931 18.5576C15.7789 18.6478 15.8482 18.7285 15.9386 18.7285H16.7024C16.8239 18.7285 16.9264 18.6405 16.9456 18.5206L17.4039 15.6183C17.4184 15.529 17.3493 15.4479 17.2586 15.4479ZM16.0766 17.0983C15.9948 17.5828 15.6103 17.908 15.1199 17.908C14.8736 17.908 14.6769 17.829 14.5505 17.6794C14.4252 17.5307 14.3775 17.3192 14.4174 17.0836C14.4938 16.6033 14.8848 16.2674 15.3677 16.2674C15.6085 16.2674 15.8042 16.3474 15.9332 16.4984C16.0624 16.6509 16.1136 16.8637 16.0766 17.0983Z" fill="#253B80"/>
<path d="M21.7749 15.4473H20.9227C20.8414 15.4473 20.765 15.4877 20.719 15.5552L19.5437 17.2864L19.0455 15.6228C19.0142 15.5187 18.9181 15.4473 18.8094 15.4473H17.972C17.8702 15.4473 17.7995 15.5467 17.8319 15.6425L18.7705 18.397L17.8881 19.6427C17.8187 19.7408 17.8886 19.8757 18.0085 19.8757H18.8596C18.9404 19.8757 19.016 19.8364 19.0618 19.7701L21.896 15.679C21.9639 15.5811 21.8942 15.4473 21.7749 15.4473Z" fill="#253B80"/>
<path d="M1.88139 19.6118L2.01681 18.7516L1.71515 18.7446H0.274734L1.27575 12.3975C1.27886 12.3784 1.28896 12.3605 1.30372 12.3478C1.31848 12.3351 1.33738 12.3281 1.35706 12.3281H3.78581C4.59211 12.3281 5.14855 12.4959 5.43907 12.8271C5.57526 12.9824 5.662 13.1448 5.70395 13.3234C5.74797 13.5109 5.74874 13.7349 5.70576 14.0081L5.70265 14.028V14.203L5.83885 14.2802C5.95356 14.341 6.0447 14.4107 6.11461 14.4904C6.23113 14.6233 6.30648 14.7921 6.33832 14.9922C6.37121 15.1981 6.36033 15.443 6.30648 15.7203C6.24433 16.0393 6.14387 16.3172 6.00819 16.5445C5.88339 16.754 5.7244 16.9277 5.53565 17.0624C5.35543 17.1903 5.1413 17.2874 4.8992 17.3495C4.66461 17.4106 4.39714 17.4414 4.10377 17.4414H3.91475C3.77959 17.4414 3.64832 17.4901 3.54526 17.5774C3.44195 17.6665 3.37359 17.7882 3.35262 17.9212L3.33838 17.9987L3.09913 19.5147L3.08825 19.5704C3.0854 19.588 3.08048 19.5968 3.07324 19.6027C3.06676 19.6082 3.05744 19.6118 3.04838 19.6118H1.88139Z" fill="#253B80"/>
<path d="M5.96782 14.0479C5.96057 14.0942 5.95228 14.1416 5.94296 14.1903C5.62267 15.8347 4.52688 16.4028 3.12737 16.4028H2.4148C2.24365 16.4028 2.09943 16.5271 2.07276 16.6959L1.70793 19.0097L1.60462 19.6656C1.58727 19.7764 1.67271 19.8763 1.78457 19.8763H3.0484C3.19806 19.8763 3.3252 19.7676 3.34876 19.62L3.36119 19.5558L3.59914 18.0457L3.61442 17.9629C3.63772 17.8147 3.76512 17.706 3.91478 17.706H4.10379C5.32827 17.706 6.28682 17.2089 6.56698 15.7702C6.68402 15.1693 6.62343 14.6675 6.31375 14.3145C6.22002 14.2081 6.10376 14.1198 5.96782 14.0479Z" fill="#179BD7"/>
<path d="M5.6327 13.9138C5.58376 13.8996 5.53327 13.8866 5.48149 13.875C5.42944 13.8636 5.3761 13.8535 5.32121 13.8447C5.12909 13.8136 4.91858 13.7988 4.69305 13.7988H2.78941C2.74254 13.7988 2.69801 13.8094 2.65813 13.8286C2.57035 13.8708 2.5051 13.9539 2.48931 14.0557L2.08434 16.6206L2.07269 16.6955C2.09936 16.5266 2.24359 16.4024 2.41474 16.4024H3.12731C4.52682 16.4024 5.6226 15.834 5.9429 14.1898C5.95248 14.1411 5.96051 14.0937 5.96776 14.0474C5.88671 14.0044 5.79893 13.9676 5.70443 13.9363C5.68112 13.9286 5.65704 13.921 5.6327 13.9138Z" fill="#222D65"/>
<path d="M2.48934 14.056C2.50513 13.9542 2.57038 13.8711 2.65816 13.8292C2.69829 13.81 2.74257 13.7994 2.78943 13.7994H4.69308C4.9186 13.7994 5.12911 13.8142 5.32124 13.8452C5.37613 13.854 5.42947 13.8641 5.48152 13.8755C5.5333 13.8872 5.58379 13.9001 5.63273 13.9144C5.65707 13.9216 5.68115 13.9291 5.70471 13.9366C5.79922 13.968 5.887 14.005 5.96804 14.0477C6.06333 13.44 5.96727 13.0262 5.63869 12.6516C5.27644 12.2391 4.62265 12.0625 3.78605 12.0625H1.3573C1.18641 12.0625 1.04063 12.1868 1.01422 12.3559L0.00258639 18.7682C-0.0173511 18.8951 0.0805239 19.0096 0.208435 19.0096H1.70789L2.08437 16.6209L2.48934 14.056Z" fill="#253B80"/>
</g>
<defs>
<clipPath id="clip0_26_154">
<rect width="32" height="32" fill="white"/>
</clipPath>
</defs>
</svg>
