<svg width="60" height="60" viewBox="0 0 60 60" fill="none" xmlns="http://www.w3.org/2000/svg">
<path d="M52.5 37.5001V47.3251C52.5076 48.0474 52.3587 48.7628 52.0633 49.4221C51.768 50.0813 51.3334 50.6687 50.7893 51.1439C50.2452 51.6191 49.6046 51.9707 48.9116 52.1746C48.2186 52.3785 47.4897 52.4299 46.775 52.3251C36.8674 51.0524 27.6648 46.5193 20.6174 39.4402C13.57 32.3611 9.07823 23.1383 7.84997 13.2251C7.74553 12.5125 7.79627 11.7857 7.99873 11.0945C8.2012 10.4033 8.5506 9.76398 9.02303 9.22033C9.49546 8.67668 10.0798 8.24151 10.736 7.94461C11.3922 7.6477 12.1047 7.49607 12.825 7.50008H22.5C23.118 7.49633 23.7155 7.72164 24.1772 8.13254C24.6389 8.54343 24.932 9.11078 25 9.72508C25.2481 13.0015 26.0954 16.2046 27.5 19.1751C27.7408 19.7376 27.767 20.369 27.5734 20.9496C27.3799 21.5301 26.9802 22.0195 26.45 22.3251L24.3 23.5501C23.9901 23.7205 23.7199 23.9548 23.5072 24.2374C23.2945 24.52 23.1442 24.8445 23.0663 25.1895C22.9883 25.5344 22.9844 25.892 23.0549 26.2386C23.1253 26.5852 23.2685 26.9129 23.475 27.2001C25.9483 30.823 29.077 33.9518 32.7 36.4251C32.9871 36.6315 33.3148 36.7747 33.6614 36.8452C34.008 36.9156 34.3656 36.9118 34.7106 36.8338C35.0556 36.7558 35.3801 36.6055 35.6627 36.3929C35.9453 36.1802 36.1795 35.91 36.35 35.6001L37.575 33.4501C37.8988 32.9129 38.4126 32.5171 39.0147 32.3411C39.6167 32.1651 40.2628 32.2219 40.825 32.5001C43.7955 33.9046 46.9985 34.752 50.275 35.0001C50.8893 35.0681 51.4566 35.3612 51.8675 35.8228C52.2784 36.2845 52.5037 36.882 52.5 37.5001Z" fill="#2CA9BC"/>
<path d="M52.5 22.5C52.5 18.5218 50.9196 14.7064 48.1066 11.8934C45.2936 9.08035 41.4782 7.5 37.5 7.5" stroke="#324094" stroke-width="5" stroke-linecap="round" stroke-linejoin="round"/>
<path d="M37.5 17.5C38.8261 17.5 40.0979 18.0268 41.0355 18.9645C41.9732 19.9021 42.5 21.1739 42.5 22.5" stroke="#324094" stroke-width="5" stroke-linecap="round" stroke-linejoin="round"/>
<path d="M52.5 37.5001V47.3251C52.5076 48.0474 52.3587 48.7628 52.0633 49.422C51.768 50.0813 51.3334 50.6687 50.7893 51.1439C50.2452 51.6191 49.6046 51.9707 48.9116 52.1746C48.2186 52.3785 47.4897 52.4299 46.775 52.3251C36.8674 51.0524 27.6648 46.5193 20.6174 39.4402C13.57 32.3611 9.07823 23.1383 7.84997 13.2251C7.74553 12.5125 7.79627 11.7857 7.99873 11.0945C8.2012 10.4033 8.5506 9.76398 9.02303 9.22033C9.49546 8.67668 10.0798 8.24151 10.736 7.94461C11.3922 7.6477 12.1047 7.49607 12.825 7.50008H22.5C23.118 7.49633 23.7155 7.72164 24.1772 8.13254C24.6389 8.54343 24.932 9.11078 25 9.72508C25.2481 13.0015 26.0954 16.2046 27.5 19.1751C27.7408 19.7376 27.767 20.369 27.5734 20.9496C27.3799 21.5301 26.9802 22.0195 26.45 22.3251L24.3 23.5501C23.9901 23.7205 23.7199 23.9548 23.5072 24.2374C23.2945 24.52 23.1442 24.8445 23.0663 25.1895C22.9883 25.5344 22.9844 25.892 23.0549 26.2386C23.1253 26.5852 23.2685 26.9129 23.475 27.2001C25.9483 30.823 29.077 33.9518 32.7 36.4251C32.9871 36.6315 33.3148 36.7747 33.6614 36.8452C34.008 36.9156 34.3656 36.9118 34.7106 36.8338C35.0556 36.7558 35.3801 36.6055 35.6627 36.3929C35.9453 36.1802 36.1795 35.91 36.35 35.6001L37.575 33.4501C37.8988 32.9129 38.4126 32.5171 39.0147 32.3411C39.6167 32.1651 40.2628 32.2219 40.825 32.5001C43.7955 33.9046 46.9985 34.752 50.275 35.0001C50.8893 35.0681 51.4566 35.3612 51.8675 35.8228C52.2784 36.2845 52.5037 36.882 52.5 37.5001Z" stroke="#324094" stroke-width="5" stroke-linecap="round" stroke-linejoin="round"/>
</svg>
