<svg width="104" height="104" viewBox="0 0 104 104" fill="none" xmlns="http://www.w3.org/2000/svg">
<circle cx="51.6278" cy="51.6278" r="32.1542" stroke="white" stroke-opacity="0.7" stroke-width="0.905751"/>
<circle cx="51.6278" cy="51.6278" r="51.1749" stroke="white" stroke-opacity="0.7" stroke-width="0.905751"/>
<path d="M51.6278 21.4362C45.6565 21.4362 39.8192 23.2069 34.8542 26.5244C29.8892 29.8419 26.0195 34.5572 23.7343 40.074C21.4492 45.5908 20.8513 51.6613 22.0162 57.518C23.1812 63.3746 26.0567 68.7542 30.2791 72.9766C34.5014 77.199 39.8811 80.0745 45.7377 81.2394C51.5943 82.4044 57.6649 81.8065 63.1817 79.5213C68.6985 77.2362 73.4138 73.3665 76.7313 68.4015C80.0488 63.4365 81.8195 57.5992 81.8195 51.6278C81.8195 47.663 81.0386 43.737 79.5213 40.074C78.004 36.411 75.7801 33.0827 72.9766 30.2791C70.173 27.4755 66.8447 25.2516 63.1817 23.7344C59.5186 22.2171 55.5926 21.4362 51.6278 21.4362ZM45.5895 65.2141V38.0416L63.7045 51.6278L45.5895 65.2141Z" fill="white"/>
</svg>
