<svg width="60" height="60" viewBox="0 0 60 60" fill="none" xmlns="http://www.w3.org/2000/svg">
<path d="M30 52.5C42.4264 52.5 52.5 42.4264 52.5 30C52.5 17.5736 42.4264 7.5 30 7.5C17.5736 7.5 7.5 17.5736 7.5 30C7.5 42.4264 17.5736 52.5 30 52.5Z" fill="#2CA9BC"/>
<path d="M30 32.5C30 27.5 37.5 30 37.5 22.5C37.5 15 22.5 15 22.5 22.5" stroke="#324094" stroke-width="5" stroke-linecap="round" stroke-linejoin="round"/>
<path d="M30.125 42.5H29.875" stroke="#324094" stroke-width="6.25" stroke-linecap="round" stroke-linejoin="round"/>
<path d="M30 52.5C42.4264 52.5 52.5 42.4264 52.5 30C52.5 17.5736 42.4264 7.5 30 7.5C17.5736 7.5 7.5 17.5736 7.5 30C7.5 42.4264 17.5736 52.5 30 52.5Z" stroke="#324094" stroke-width="5" stroke-linecap="round" stroke-linejoin="round"/>
</svg>
