<svg width="20" height="24" viewBox="0 0 20 24" fill="none" xmlns="http://www.w3.org/2000/svg">
<path d="M9.29688 5.69922C9.29688 5.95963 9.16667 6.08984 8.90625 6.08984C8.64583 6.08984 8.51563 5.95963 8.51563 5.69922V4.44922C8.51563 4.13672 8.39844 3.86328 8.16406 3.6289C7.92969 3.39453 7.65625 3.27734 7.34375 3.27734H1.95313C1.64063 3.27734 1.36719 3.39453 1.13281 3.6289C0.898438 3.86328 0.78125 4.13672 0.78125 4.44922V9.13672C0.78125 9.44922 0.898438 9.72265 1.13281 9.95703C1.36719 10.1914 1.64063 10.3086 1.95313 10.3086H4.88281C5.14323 10.3086 5.27344 10.4388 5.27344 10.6992C5.27344 12.4701 4.9349 13.8372 4.25781 14.8008C3.63281 15.7122 2.72135 16.2591 1.52344 16.4414V19.5664C6.1849 19.1497 8.51563 16.1029 8.51563 10.4258V9.01953C8.51563 8.75911 8.64583 8.6289 8.90625 8.6289C9.16667 8.6289 9.29688 8.75911 9.29688 9.01953V10.4258C9.29688 13.5768 8.61979 15.9727 7.26563 17.6133C5.91146 19.306 3.88021 20.2305 1.17188 20.3867C1.14583 20.3867 1.13281 20.3867 1.13281 20.3867C1.02865 20.3867 0.9375 20.3477 0.859375 20.2695C0.78125 20.1914 0.742188 20.1003 0.742188 19.9961V16.1289C0.742188 15.8685 0.859375 15.7383 1.09375 15.7383C3.25521 15.5299 4.38802 13.9805 4.49219 11.0898H1.95313C1.40625 11.0898 0.944011 10.901 0.566406 10.5234C0.188802 10.1458 0 9.68359 0 9.13672V4.44922C0 3.90234 0.188802 3.4401 0.566406 3.0625C0.944011 2.68489 1.40625 2.49609 1.95313 2.49609H7.34375C7.89063 2.49609 8.35287 2.68489 8.73047 3.0625C9.10807 3.4401 9.29688 3.90234 9.29688 4.44922V5.69922ZM18.0469 2.49609C18.5938 2.49609 19.056 2.68489 19.4336 3.0625C19.8112 3.4401 20 3.90234 20 4.44922V10.4258C20 13.5768 19.3229 15.9727 17.9688 17.6133C16.6146 19.306 14.5833 20.2305 11.875 20.3867C11.849 20.3867 11.8359 20.3867 11.8359 20.3867C11.7318 20.3867 11.6406 20.3477 11.5625 20.2695C11.4844 20.1914 11.4453 20.1003 11.4453 19.9961V16.1289C11.4453 15.8685 11.5625 15.7383 11.7969 15.7383C13.9583 15.5299 15.0911 13.9805 15.1953 11.0898H12.6563C12.1094 11.0898 11.6471 10.901 11.2695 10.5234C10.8919 10.1458 10.7031 9.68359 10.7031 9.13672V4.44922C10.7031 3.90234 10.8919 3.4401 11.2695 3.0625C11.6471 2.68489 12.1094 2.49609 12.6563 2.49609H18.0469ZM19.2188 10.4258V4.44922C19.2188 4.24088 19.1732 4.05208 19.082 3.88281C18.9909 3.71354 18.8607 3.57682 18.6914 3.47265C18.5221 3.36849 18.3333 3.30338 18.125 3.27734V6.16797C18.125 6.42838 17.9948 6.55859 17.7344 6.55859C17.474 6.55859 17.3438 6.42838 17.3438 6.16797V3.27734H12.6563C12.3438 3.27734 12.0703 3.39453 11.8359 3.6289C11.6016 3.86328 11.4844 4.13672 11.4844 4.44922V9.13672C11.4844 9.44922 11.6016 9.72265 11.8359 9.95703C12.0703 10.1914 12.3438 10.3086 12.6563 10.3086H15.5859C15.8464 10.3086 15.9766 10.4388 15.9766 10.6992C15.9766 12.4701 15.638 13.8372 14.9609 14.8008C14.3359 15.7122 13.4245 16.2591 12.2266 16.4414V19.5664C16.888 19.1497 19.2188 16.1029 19.2188 10.4258ZM17.3438 7.53515C17.3438 7.53515 17.3438 7.47005 17.3438 7.33984C17.3438 7.20963 17.474 7.14453 17.7344 7.14453C17.9948 7.14453 18.125 7.27474 18.125 7.53515C18.125 7.79557 17.9948 7.92578 17.7344 7.92578C17.474 7.92578 17.3438 7.79557 17.3438 7.53515ZM8.51563 7.3789C8.51563 7.11849 8.64583 6.98828 8.90625 6.98828C9.16667 6.98828 9.29688 7.11849 9.29688 7.3789C9.29688 7.63932 9.16667 7.76953 8.90625 7.76953C8.64583 7.76953 8.51563 7.63932 8.51563 7.3789Z" fill="white"/>
</svg>
