<svg width="15" height="15" viewBox="0 0 15 15" fill="none" xmlns="http://www.w3.org/2000/svg">
<path d="M7.26562 0C11.2793 0 14.5312 3.25195 14.5312 7.26562C14.5312 11.2793 11.2793 14.5312 7.26562 14.5312C3.25195 14.5312 0 11.2793 0 7.26562C0 3.25195 3.25195 0 7.26562 0ZM7.26562 13.125C10.4883 13.125 13.125 10.5176 13.125 7.26562C13.125 4.04297 10.4883 1.40625 7.26562 1.40625C4.01367 1.40625 1.40625 4.04297 1.40625 7.26562C1.40625 10.5176 4.01367 13.125 7.26562 13.125ZM9.05273 10.0781L6.5625 8.26172C6.47461 8.20312 6.44531 8.08594 6.44531 7.99805V3.16406C6.44531 2.98828 6.5918 2.8125 6.79688 2.8125H7.73438C7.91016 2.8125 8.08594 2.98828 8.08594 3.16406V7.32422L10.0195 8.75977C10.1953 8.87695 10.2246 9.08203 10.1074 9.25781L9.55078 9.99023C9.43359 10.166 9.22852 10.1953 9.05273 10.0781Z" fill="#F7941F"/>
</svg>
