<svg width="16" height="16" viewBox="0 0 16 16" fill="none" xmlns="http://www.w3.org/2000/svg">
<path d="M15.5 4V4.5C15.5 4.5663 15.4737 4.62989 15.4268 4.67677C15.3799 4.72366 15.3163 4.75 15.25 4.75H14.5V5.125C14.5 5.33209 14.3321 5.5 14.125 5.5H1.875C1.66791 5.5 1.5 5.33209 1.5 5.125V4.75H0.75C0.683696 4.75 0.620107 4.72366 0.573223 4.67677C0.526339 4.62989 0.5 4.5663 0.5 4.5V4C0.5 3.95054 0.514671 3.90219 0.542156 3.86107C0.569641 3.81995 0.608706 3.78791 0.654406 3.769L7.90441 1.019C7.96562 0.993667 8.03438 0.993667 8.09559 1.019L15.3456 3.769C15.3913 3.78791 15.4304 3.81995 15.4578 3.86107C15.4853 3.90219 15.5 3.95054 15.5 4ZM14.75 13.5H1.25C0.835781 13.5 0.5 13.8358 0.5 14.25V14.75C0.5 14.8163 0.526339 14.8799 0.573223 14.9268C0.620107 14.9737 0.683696 15 0.75 15H15.25C15.3163 15 15.3799 14.9737 15.4268 14.9268C15.4737 14.8799 15.5 14.8163 15.5 14.75V14.25C15.5 13.8358 15.1642 13.5 14.75 13.5ZM3 6V12H1.875C1.66791 12 1.5 12.1679 1.5 12.375V13H14.5V12.375C14.5 12.1679 14.3321 12 14.125 12H13V6H11V12H9V6H7V12H5V6H3Z" fill="#F7941F"/>
</svg>
