<svg width="16" height="16" viewBox="0 0 16 16" fill="none" xmlns="http://www.w3.org/2000/svg">
<path d="M0 16L1.12466 11.8913C0.430666 10.6887 0.0659999 9.32533 0.0666665 7.92733C0.0686665 3.55667 3.62533 0 7.99532 0C10.116 0.000666667 12.1066 0.826667 13.604 2.32533C15.1006 3.824 15.9246 5.816 15.924 7.93467C15.922 12.306 12.3653 15.8627 7.99532 15.8627C6.66865 15.862 5.36132 15.5293 4.20332 14.8973L0 16ZM4.39799 13.462C5.51532 14.1253 6.58199 14.5227 7.99265 14.5233C11.6246 14.5233 14.5833 11.5673 14.5853 7.93333C14.5866 4.292 11.642 1.34 7.99798 1.33867C4.36332 1.33867 1.40666 4.29467 1.40533 7.928C1.40466 9.41133 1.83933 10.522 2.56933 11.684L1.90333 14.116L4.39799 13.462ZM11.9893 9.81933C11.94 9.73667 11.808 9.68733 11.6093 9.588C11.4113 9.48867 10.4373 9.00933 10.2553 8.94333C10.074 8.87733 9.94198 8.844 9.80931 9.04267C9.67731 9.24067 9.29731 9.68733 9.18198 9.81933C9.06665 9.95133 8.95065 9.968 8.75265 9.86867C8.55465 9.76933 7.91598 9.56067 7.15932 8.88533C6.57065 8.36 6.17265 7.71133 6.05732 7.51267C5.94199 7.31467 6.04532 7.20733 6.14399 7.10867C6.23332 7.02 6.34199 6.87733 6.44132 6.76133C6.54199 6.64667 6.57465 6.564 6.64132 6.43133C6.70732 6.29933 6.67465 6.18333 6.62465 6.084C6.57465 5.98533 6.17865 5.01 6.01399 4.61333C5.85265 4.22733 5.68932 4.27933 5.56799 4.27333L5.18799 4.26667C5.05599 4.26667 4.84132 4.316 4.65999 4.51467C4.47866 4.71333 3.96666 5.192 3.96666 6.16733C3.96666 7.14267 4.67666 8.08467 4.77532 8.21667C4.87466 8.34867 6.17199 10.35 8.15931 11.208C8.63198 11.412 9.00131 11.534 9.28865 11.6253C9.76331 11.776 10.1953 11.7547 10.5366 11.704C10.9173 11.6473 11.7086 11.2247 11.874 10.762C12.0393 10.2987 12.0393 9.902 11.9893 9.81933Z" fill="white"/>
</svg>
