<svg width="42" height="43" viewBox="0 0 42 43" fill="none" xmlns="http://www.w3.org/2000/svg">
<g clip-path="url(#clip0_103_75)">
<path d="M0.89191 20.8092C0.890931 24.3483 1.81567 27.8039 3.57403 30.8498L0.723747 41.2567L11.3739 38.4642C14.3196 40.0677 17.62 40.908 20.9739 40.9083H20.9827C32.0545 40.9083 41.0673 31.8988 41.072 20.825C41.0741 15.4589 38.9863 10.4131 35.193 6.61683C31.4003 2.82091 26.3562 0.729317 20.9819 0.726868C9.90873 0.726868 0.896645 9.73585 0.892074 20.8092" fill="url(#paint0_linear_103_75)"/>
<path d="M0.174694 20.8026C0.173551 24.4691 1.13143 28.0483 2.95249 31.2033L0 41.9832L11.032 39.0906C14.0717 40.7479 17.494 41.6217 20.9765 41.623H20.9855C32.4545 41.623 41.791 32.2895 41.7959 20.8193C41.7979 15.2604 39.6349 10.0331 35.7061 6.1009C31.7768 2.16914 26.5523 0.00228571 20.9855 0C9.51445 0 0.179265 9.33224 0.174694 20.8026ZM6.74465 30.6599L6.33273 30.006C4.60114 27.2527 3.68718 24.071 3.68849 20.8039C3.69208 11.27 11.4511 3.51347 20.992 3.51347C25.6124 3.51543 29.9546 5.31657 33.2206 8.58449C36.4864 11.8527 38.2834 16.1972 38.2823 20.818C38.278 30.3518 30.5189 38.1094 20.9855 38.1094H20.9786C17.8744 38.1078 14.83 37.2741 12.175 35.6988L11.5432 35.3241L4.99657 37.0405L6.74465 30.6599Z" fill="url(#paint1_linear_103_75)"/>
<path d="M15.7842 12.1058C15.3946 11.24 14.9847 11.2225 14.6142 11.2073C14.3109 11.1943 13.9641 11.1953 13.6176 11.1953C13.2709 11.1953 12.7074 11.3257 12.2312 11.8457C11.7544 12.3662 10.4111 13.624 10.4111 16.1822C10.4111 18.7404 12.2744 21.2129 12.5342 21.5602C12.7943 21.9068 16.1314 27.3246 21.4167 29.4088C25.8091 31.1409 26.703 30.7964 27.6563 30.7096C28.6098 30.623 30.7329 29.4521 31.166 28.2379C31.5995 27.0238 31.5995 25.9832 31.4696 25.7657C31.3396 25.5491 30.9928 25.4189 30.4728 25.159C29.9528 24.8991 27.3962 23.641 26.9197 23.4674C26.4429 23.294 26.0963 23.2075 25.7496 23.7282C25.4028 24.248 24.407 25.4189 24.1035 25.7657C23.8003 26.1133 23.4968 26.1566 22.977 25.8965C22.4567 25.6356 20.782 25.0872 18.7953 23.3159C17.2495 21.9376 16.2059 20.2356 15.9025 19.7149C15.5992 19.1951 15.87 18.9133 16.1308 18.6542C16.3644 18.4212 16.6509 18.047 16.9112 17.7435C17.1704 17.4398 17.257 17.2232 17.4304 16.8764C17.6039 16.5293 17.5171 16.2256 17.3873 15.9656C17.257 15.7055 16.2465 13.1339 15.7842 12.1058Z" fill="white"/>
</g>
<defs>
<linearGradient id="paint0_linear_103_75" x1="2018.14" y1="4053.71" x2="2018.14" y2="0.726868" gradientUnits="userSpaceOnUse">
<stop stop-color="#1FAF38"/>
<stop offset="1" stop-color="#60D669"/>
</linearGradient>
<linearGradient id="paint1_linear_103_75" x1="2089.8" y1="4198.32" x2="2089.8" y2="0" gradientUnits="userSpaceOnUse">
<stop stop-color="#F9F9F9"/>
<stop offset="1" stop-color="white"/>
</linearGradient>
<clipPath id="clip0_103_75">
<rect width="41.7959" height="42.1224" fill="white"/>
</clipPath>
</defs>
</svg>
