<svg width="16" height="12" viewBox="0 0 16 12" fill="none" xmlns="http://www.w3.org/2000/svg">
<path d="M15.8406 2.42812C15.8406 2.42812 15.6844 1.325 15.2031 0.840625C14.5938 0.203125 13.9125 0.2 13.6 0.1625C11.3625 -8.9407e-08 8.00313 0 8.00313 0H7.99687C7.99687 0 4.6375 -8.9407e-08 2.4 0.1625C2.0875 0.2 1.40625 0.203125 0.796875 0.840625C0.315625 1.325 0.1625 2.42812 0.1625 2.42812C0.1625 2.42812 0 3.725 0 5.01875V6.23125C0 7.525 0.159375 8.82187 0.159375 8.82187C0.159375 8.82187 0.315625 9.925 0.79375 10.4094C1.40313 11.0469 2.20313 11.025 2.55938 11.0937C3.84063 11.2156 8 11.2531 8 11.2531C8 11.2531 11.3625 11.2469 13.6 11.0875C13.9125 11.05 14.5938 11.0469 15.2031 10.4094C15.6844 9.925 15.8406 8.82187 15.8406 8.82187C15.8406 8.82187 16 7.52812 16 6.23125V5.01875C16 3.725 15.8406 2.42812 15.8406 2.42812ZM6.34688 7.70312V3.20625L10.6687 5.4625L6.34688 7.70312Z" fill="white"/>
</svg>
